<?xml version="1.0" encoding="UTF-8"?>
<svg version="1.1" xmlns="http://www.w3.org/2000/svg" width="42" height="58">
<path d="M0 0 C13.86 0 27.72 0 42 0 C42 19.14 42 38.28 42 58 C28.14 58 14.28 58 0 58 C0 38.86 0 19.72 0 0 Z " fill="#FDFDFD" transform="translate(0,0)"/>
<path d="M0 0 C1.670625 0.061875 1.670625 0.061875 3.375 0.125 C3.375 0.785 3.375 1.445 3.375 2.125 C4.365 2.455 5.355 2.785 6.375 3.125 C5.625 9.875 5.625 9.875 3.375 12.125 C0.68660615 12.39491906 -1.91641936 12.21237357 -4.625 12.125 C-7.1309761 5.63894422 -7.1309761 5.63894422 -5.625 2.125 C-3.625 0.125 -3.625 0.125 0 0 Z " fill="#512817" transform="translate(17.625,16.875)"/>
<path d="M0 0 C0 0.66 0 1.32 0 2 C0.66 2 1.32 2 2 2 C1.67 4.64 1.34 7.28 1 10 C-2.40562852 10.77842938 -5.50765756 11.09978121 -9 11 C-10.52491998 7.95016004 -10.23562548 5.3576631 -10 2 C-7.69981438 -2.32976117 -4.22839932 -0.87759231 0 0 Z " fill="#703217" transform="translate(31,28)"/>
<path d="M0 0 C0.598125 0.20625 1.19625 0.4125 1.8125 0.625 C2.1425 1.945 2.4725 3.265 2.8125 4.625 C0.1725 4.625 -2.4675 4.625 -5.1875 4.625 C-5.1875 3.635 -5.1875 2.645 -5.1875 1.625 C-2.1875 -0.375 -2.1875 -0.375 0 0 Z " fill="#D16522" transform="translate(18.1875,22.375)"/>
<path d="M0 0 C2.31 0.33 4.62 0.66 7 1 C6.67 1.99 6.34 2.98 6 4 C6.66 4 7.32 4 8 4 C8 4.66 8 5.32 8 6 C7.01 6.33 6.02 6.66 5 7 C4.731875 6.21625 4.46375 5.4325 4.1875 4.625 C3.15185568 1.71885077 3.15185568 1.71885077 0 0 Z " fill="#794C37" transform="translate(24,27)"/>
</svg>
